<svg xmlns="http://www.w3.org/2000/svg" viewBox="0 0 1126.03 965.4"><defs><style>.cls-1{fill:#244e3d;}</style></defs><g id="Calque_2" data-name="Calque 2"><g id="Calque_2-2" data-name="Calque 2"><path d="M364.69,801.19V763l-6.38-1.59a65.24,65.24,0,0,0-9.88-1.72c-3-.27-6-.4-9-.4-15.74,0-29.38,4.28-40.54,12.72-1.45,1.09-2.84,2.24-4.15,3.42l-.76-12h-40.6V960.92H296V849.49c0-15.29,4.05-26.93,12.38-35.58s19.26-12.72,33.67-12.72Z"/><path d="M727.36,779.85a68.09,68.09,0,0,0-14.14-10.49c-12.79-7.15-27.54-10.78-43.86-10.78-19.51,0-36.46,4.68-50.37,13.91a89.67,89.67,0,0,0-31.91,37.62c-7.21,15.49-10.86,33.13-10.86,52.44,0,19.08,3.66,36.54,10.87,51.91a89,89,0,0,0,31.73,37.23c13.78,9.09,30.41,13.71,49.42,13.71,16.6,0,31.69-3.83,44.87-11.38a71,71,0,0,0,16.76-13.31l1.43,20.21H770V672H727.36ZM702,917.29c-7.76,5.13-17.61,7.74-29.31,7.74-11.37,0-20.79-2.54-28.79-7.77a49.13,49.13,0,0,1-18.19-21.77c-4.34-9.68-6.54-21-6.54-33.69s2.2-23.91,6.52-33.46A50.56,50.56,0,0,1,644,806.49c8-5.32,17.4-7.91,28.73-7.91,11.65,0,21.49,2.65,29.24,7.88a52.23,52.23,0,0,1,18.35,21.95c4.43,9.53,6.68,20.77,6.68,33.39s-2.25,24-6.69,33.61C716,904.87,710,912,702,917.29Z"/><path d="M828,675.36a26.62,26.62,0,0,0-19.49,8.35,27.21,27.21,0,0,0-8,19.48A27.55,27.55,0,0,0,828,730.66a27.24,27.24,0,0,0,19.49-8,26.65,26.65,0,0,0,8.35-19.5A28.19,28.19,0,0,0,828,675.36Z"/><rect x="806.86" y="763.43" width="42.61" height="197.49"/><path d="M1009.29,866.44c-8.42-8.84-21.39-15.54-38.56-19.9l-31-7.84c-23.12-5.85-23.12-16.27-23.12-20.19,0-7.08,2.21-12.07,7-15.69,5.3-4.05,13.44-6.11,24.18-6.11,10.13,0,18,2.25,23.38,6.67,5,4.13,7.56,10.12,7.75,18.32l.2,8.23H1021l-.19-8.62c-.29-12.75-3.58-24-9.8-33.39a61.82,61.82,0,0,0-25.63-21.81c-10.54-5-22.93-7.53-36.82-7.53s-26.63,2.37-37.48,7c-11.25,4.85-20.17,11.92-26.52,21s-9.74,20.09-9.74,32.26c0,14.35,4.67,26.59,13.86,36.37,8.79,9.37,22,16.32,39.16,20.68l31,7.84c11.31,2.9,16.23,6.19,18.35,8.44,2.72,2.88,4,6.85,4,12.13,0,7-2.62,12.08-8.23,16.09-6.34,4.53-15.68,6.83-27.76,6.83-10.53,0-18.56-2.37-24.52-7.25-5.52-4.51-8.1-10.32-8.1-18.29V893.3H871v8.43c0,19.19,7,34.86,20.91,46.57,13.45,11.34,31.48,17.1,53.58,17.1,14.74,0,28-2.42,39.28-7.19,11.76-5,21.09-12.29,27.72-21.8a56.85,56.85,0,0,0,10.09-33.18C1022.62,888.12,1018.14,875.74,1009.29,866.44Z"/><path class="cls-1" d="M211.73,872.9c17.29-21.52,24.5-48.32,19.77-73.5-4-21.49-16.41-39.62-34-49.76-34.63-20-80-7.76-105.5,28.43-13.86,19.65-22,45.12-22.23,69.9-14.15-6-27.05-13.28-37.14-21.05L26,821.77,0,855.47l6.68,5.15c19.08,14.71,46.2,28,73.2,36.09a107.18,107.18,0,0,0,17.35,26.47c21.34,24,52.65,37.74,85.9,37.74a122.29,122.29,0,0,0,36.54-5.61l8-2.52L215,912.18l-8,2.52c-23.28,7.3-47.85,3.53-66.27-9.42C171.21,904.08,195.52,893.08,211.73,872.9Zm-33.17-26.65c-15.69,19.52-47.55,17.58-65.3,14.64-3-19.75,2.1-42.08,13.54-58.31,12.75-18.08,34-25,49.45-16.08,6.8,3.92,11.7,11.48,13.44,20.74C192.11,820.2,188.06,834.42,178.56,846.25Z"/><path class="cls-1" d="M545.8,872.9c17.29-21.52,24.5-48.31,19.78-73.5-4-21.48-16.41-39.62-34-49.76-34.64-20-80-7.76-105.5,28.43-13.86,19.65-22,45.12-22.24,69.9-14.15-6-27.05-13.28-37.13-21.05l-6.68-5.15-26,33.7,6.67,5.15c19.09,14.71,46.2,28,73.2,36.09a107.37,107.37,0,0,0,17.35,26.47c21.34,24,52.65,37.74,85.9,37.74a122.24,122.24,0,0,0,36.54-5.61l8-2.52-12.73-40.61-8,2.52c-23.28,7.3-47.84,3.53-66.26-9.42C505.29,904.08,529.59,893.08,545.8,872.9Zm-33.17-26.65c-15.68,19.52-47.54,17.58-65.3,14.64-3-19.75,2.11-42.08,13.54-58.31,12.75-18.08,34-25,49.46-16.08,6.8,3.92,11.69,11.48,13.43,20.74C526.19,820.2,522.13,834.42,512.63,846.25Z"/><polygon points="1022.46 713.51 1038.13 713.51 1038.13 758.4 1050.32 758.4 1050.32 713.51 1065.98 713.51 1065.98 702.07 1022.46 702.07 1022.46 713.51"/><path d="M1114.45,702.06l-16.33,40.29-16.34-40.29h-11.43V758.4h11.89V737.81c0-2.28,0-4.36,0-6.24l10.65,26.83h10.55l10.77-27c0,.73,0,1.53,0,2.38V758.4H1126V702.06Z"/><path class="cls-1" d="M620.52,243.8c-11.28-9.14-29.26-6.29-41.82,6.62-11.27,11.59-18.21,28.9-18.34,45.16,13.9,4.63,39.27,10.26,54.38-3.44,9.15-8.29,14.23-19.21,13.93-29.94C628.45,254.53,625.48,247.83,620.52,243.8Z"/><path class="cls-1" d="M667.76,171.86V88.4H608.53V0H543.91V88.4H484.68v83.46H425.45V403.4h59.23v83.47h59.23v88.39h64.62V486.87h59.23V403.4H727V171.86ZM638,317.81c-15.62,14.16-36.56,19.9-61.27,17,13.16,12.76,32.43,18.93,52.09,16l6.79-1,5,34.28-6.79,1a99.9,99.9,0,0,1-30.1-.15c-26.74-4.25-50.16-19.31-64.26-41.32A87.2,87.2,0,0,1,529,320.12c-20.69-9.91-40.79-24.11-54.25-38.37l-4.72-5L495.18,253l4.71,5a139,139,0,0,0,27.17,21.66c3.38-19.88,13.15-39.33,26.8-53.36,25.14-25.84,63.17-29.88,88.47-9.38,12.83,10.39,20.47,26.56,21,44.34C663.88,282.09,654.66,302.71,638,317.81Z"/></g></g></svg>