<svg xmlns="http://www.w3.org/2000/svg" width="48" height="48" viewBox="0 0 256 256">
  <rect width="256" height="256" fill="#f7df1e"></rect>
  <path d="M67.2 214.1l19.7-11.9c3.8 6.7 7.2 12.4 15.4 12.4 7.9 0 12.8-3.1 12.8-15.2V113h24v86.5c0 24.9-14.6 36.2-35.8 36.2-19.2 0-30.4-9.9-36.1-21.6zm91.1-2.5l19.7-11.4c5.2 8.5 11.9 14.8 23.8 14.8 10 0 16.4-5 16.4-11.9 0-8.3-6.6-11.2-17.7-16L190 183.7c-17.8-7.6-29.6-17.1-29.6-37.2 0-18.5 14.1-32.7 36.1-32.7 15.7 0 27 5.5 35.1 20l-19.2 12.3c-4.2-7.6-8.8-10.6-15.9-10.6-7.2 0-11.8 4.6-11.8 10.6 0 7.4 4.6 10.3 15.2 14.8l6.5 2.8c22 9.4 34.4 19.1 34.4 40.9 0 23.4-18.4 36.3-43.2 36.3-24.2 0-39.8-11.5-47.4-26.5z" fill="#000"></path>
</svg>
